<svg width="16" height="19" viewBox="0 0 16 19" fill="none" xmlns="http://www.w3.org/2000/svg">
<path d="M5.71429 14.3914H10.2857C10.9143 14.3914 11.4286 13.8771 11.4286 13.2485V7.53422H13.2457C14.2629 7.53422 14.7771 6.29994 14.0571 5.57994L8.81143 0.334222C8.7057 0.228275 8.58011 0.14422 8.44186 0.0868702C8.3036 0.02952 8.15539 0 8.00571 0C7.85604 0 7.70783 0.02952 7.56957 0.0868702C7.43132 0.14422 7.30573 0.228275 7.2 0.334222L1.95429 5.57994C1.23429 6.29994 1.73714 7.53422 2.75429 7.53422H4.57143V13.2485C4.57143 13.8771 5.08571 14.3914 5.71429 14.3914ZM1.14286 16.6771H14.8571C15.4857 16.6771 16 17.1914 16 17.8199C16 18.4485 15.4857 18.9628 14.8571 18.9628H1.14286C0.514286 18.9628 0 18.4485 0 17.8199C0 17.1914 0.514286 16.6771 1.14286 16.6771Z" fill="#710B95"/>
</svg>
