<svg width="28" height="28" viewBox="0 0 28 28" fill="none" xmlns="http://www.w3.org/2000/svg">
<path d="M27.8523 0.379589C27.8409 0.324312 27.8139 0.273435 27.7746 0.23292C27.7353 0.192405 27.6853 0.163932 27.6304 0.150839C23.9698 -0.744161 15.5117 2.44521 10.9292 7.02584C10.1118 7.83656 9.36672 8.71697 8.70229 9.65709C7.28916 9.53209 5.87604 9.63646 4.67166 10.1615C1.27354 11.6571 0.284161 15.5596 0.00853632 17.2383C-0.00709763 17.3302 -0.0012005 17.4245 0.0257637 17.5137C0.052728 17.6029 0.100024 17.6847 0.163932 17.7525C0.22784 17.8204 0.306617 17.8725 0.394068 17.9047C0.481518 17.9369 0.575257 17.9485 0.667911 17.9383L6.12479 17.3365C6.12868 17.7479 6.15351 18.1588 6.19916 18.5677C6.22662 18.8517 6.35267 19.117 6.55541 19.3177L8.66854 21.4258C8.86941 21.6283 9.13467 21.7543 9.41854 21.7821C9.82514 21.8276 10.2338 21.8524 10.6429 21.8565L10.0442 27.3065C10.0342 27.3991 10.0458 27.4928 10.0781 27.5802C10.1104 27.6675 10.1625 27.7463 10.2303 27.8101C10.2981 27.874 10.3798 27.9213 10.4689 27.9483C10.5581 27.9753 10.6523 27.9813 10.7442 27.9658C12.4198 27.6971 16.3292 26.7077 17.816 23.3096C18.341 22.1052 18.4485 20.699 18.3273 19.2927C19.2697 18.6282 20.1524 17.8829 20.9654 17.0652C25.5623 12.4915 28.7335 4.22209 27.8523 0.379589ZM16.3792 11.609C15.9594 11.1895 15.6735 10.6549 15.5576 10.0729C15.4417 9.49094 15.501 8.88764 15.728 8.33935C15.955 7.79106 16.3395 7.32241 16.8329 6.99268C17.3263 6.66295 17.9064 6.48695 18.4998 6.48695C19.0932 6.48695 19.6733 6.66295 20.1667 6.99268C20.6601 7.32241 21.0446 7.79106 21.2716 8.33935C21.4986 8.88764 21.5579 9.49094 21.442 10.0729C21.3261 10.6549 21.0402 11.1895 20.6204 11.609C20.3421 11.8877 20.0115 12.1088 19.6476 12.2597C19.2838 12.4106 18.8937 12.4882 18.4998 12.4882C18.1059 12.4882 17.7158 12.4106 17.3519 12.2597C16.9881 12.1088 16.6575 11.8877 16.3792 11.609Z" fill="white"/>
</svg>
