<svg width="27" height="20" viewBox="0 0 27 20" fill="none" xmlns="http://www.w3.org/2000/svg">
<path fill-rule="evenodd" clip-rule="evenodd" d="M17.7711 0.389343H8.89644C4.39777 0.389343 2.14711 0.389344 0.883106 1.70534C-0.380895 3.02134 -0.083561 5.05334 0.512439 9.11868L1.07511 12.9747C1.54177 16.1627 1.77511 17.7573 2.97111 18.712C4.16844 19.6667 5.93111 19.6667 9.46044 19.6667H17.2071C20.7351 19.6667 22.5004 19.6667 23.6964 18.712C24.8924 17.7573 25.1258 16.1627 25.5924 12.9747L26.1551 9.12001C26.7511 5.05334 27.0484 3.02134 25.7844 1.70534C24.5204 0.389344 22.2698 0.389343 17.7711 0.389343ZM16.7751 11.392C17.5204 10.9307 17.5204 9.73601 16.7751 9.27468L12.2804 6.48801C11.5564 6.03868 10.6671 6.62268 10.6671 7.54668V13.12C10.6671 14.044 11.5564 14.6267 12.2804 14.1787L16.7751 11.392Z" fill="white"/>
</svg>
