<svg width="27" height="25" viewBox="0 0 27 25" fill="none" xmlns="http://www.w3.org/2000/svg">
<path d="M17.3006 17.0304C23.4166 11.5997 28.1553 4.46503 25.3766 1.33569C24.4953 0.343694 23.2646 -0.116306 21.9433 0.0250272C20.834 0.146361 19.694 0.69436 18.5446 1.61436C16.7379 0.678358 14.7213 0.221431 12.6876 0.28726C10.6539 0.35309 8.67103 0.939476 6.92862 1.99036C5.5741 2.79233 4.39232 3.85529 3.45184 5.11758C2.51136 6.37987 1.8309 7.81636 1.44995 9.34369C0.856214 11.6964 0.998623 14.1745 1.85795 16.4437C0.437953 18.0477 -0.880713 21.3464 0.76062 23.1944C1.44995 23.969 2.43662 24.3157 3.62329 24.3157C7.23262 24.3157 12.7006 21.117 17.3006 17.0304ZM22.2326 2.67436C22.71 2.62903 23.0753 2.75969 23.3806 3.10503C23.6886 3.45303 23.606 4.36636 23.0446 5.67703C22.4416 4.75929 21.7163 3.92808 20.8886 3.20636C21.4633 2.85703 21.9233 2.70903 22.2326 2.67436ZM3.25795 19.0784C3.85083 19.9383 4.55369 20.7169 5.34862 21.3944C3.98195 21.7984 3.06329 21.7717 2.75529 21.4224C2.46595 21.0984 2.75795 19.997 3.25795 19.0784ZM25.0046 11.253C23.3846 13.649 21.13 16.1477 18.634 18.3637C16.0553 20.6557 13.2126 22.641 10.5673 23.9664C11.3881 24.147 12.2255 24.2418 13.066 24.249C15.2344 24.2467 17.3615 23.6559 19.2206 22.5397C21.1519 21.3963 22.7201 19.7296 23.7436 17.7322C24.7672 15.7348 25.2044 13.4885 25.0046 11.253Z" fill="white"/>
</svg>
