<svg width="25" height="26" viewBox="0 0 25 26" fill="none" xmlns="http://www.w3.org/2000/svg">
<path d="M21.9711 14.0533C22.0245 13.6533 22.0511 13.24 22.0511 12.8C22.0511 12.3733 22.0245 11.9467 21.9578 11.5467L24.6645 9.44C24.7811 9.34387 24.8608 9.21027 24.89 9.06196C24.9191 8.91365 24.896 8.75982 24.8245 8.62667L22.2645 4.2C22.1891 4.06609 22.0688 3.96317 21.9248 3.90948C21.7808 3.85579 21.6224 3.8548 21.4778 3.90667L18.2911 5.18667C17.6245 4.68 16.9178 4.25334 16.1311 3.93334L15.6511 0.54667C15.6275 0.394044 15.5499 0.254947 15.4325 0.154639C15.3151 0.0543308 15.1656 -0.00053534 15.0111 3.93786e-06H9.89113C9.57113 3.93786e-06 9.31779 0.22667 9.26446 0.54667L8.78446 3.93334C7.99779 4.25334 7.27779 4.69334 6.62446 5.18667L3.43779 3.90667C3.14446 3.8 2.81112 3.90667 2.65112 4.2L0.104457 8.62667C-0.0555426 8.90667 -0.00220943 9.25334 0.264457 9.44L2.97112 11.5467C2.90446 11.9467 2.85112 12.3867 2.85112 12.8C2.85112 13.2133 2.87779 13.6533 2.94446 14.0533L0.237791 16.16C0.121156 16.2561 0.0414622 16.3897 0.0122873 16.538C-0.0168875 16.6864 0.00626171 16.8402 0.0777908 16.9733L2.63779 21.4C2.79779 21.6933 3.13112 21.7867 3.42446 21.6933L6.61112 20.4133C7.27779 20.92 7.98446 21.3467 8.77112 21.6667L9.25113 25.0533C9.31779 25.3733 9.57113 25.6 9.89113 25.6H15.0111C15.3311 25.6 15.5978 25.3733 15.6378 25.0533L16.1178 21.6667C16.9045 21.3467 17.6245 20.92 18.2778 20.4133L21.4645 21.6933C21.7578 21.8 22.0911 21.6933 22.2511 21.4L24.8111 16.9733C24.9711 16.68 24.9045 16.3467 24.6511 16.16L21.9711 14.0533ZM12.4511 17.6C9.81112 17.6 7.65112 15.44 7.65112 12.8C7.65112 10.16 9.81112 8 12.4511 8C15.0911 8 17.2511 10.16 17.2511 12.8C17.2511 15.44 15.0911 17.6 12.4511 17.6Z" fill="white"/>
</svg>
